<?xml version="1.0" encoding="UTF-8" standalone="no"?>
<!-- Created with Inkscape (http://www.inkscape.org/) -->

<svg
   width="210mm"
   height="297mm"
   viewBox="0 0 210 297"
   version="1.1"
   id="svg5"
   xml:space="preserve"
   inkscape:version="1.2.2 (b0a84865, 2022-12-01)"
   sodipodi:docname="logoProjectManager.svg"
   xmlns:inkscape="http://www.inkscape.org/namespaces/inkscape"
   xmlns:sodipodi="http://sodipodi.sourceforge.net/DTD/sodipodi-0.dtd"
   xmlns="http://www.w3.org/2000/svg"
   xmlns:svg="http://www.w3.org/2000/svg"><sodipodi:namedview
     id="namedview7"
     pagecolor="#505050"
     bordercolor="#eeeeee"
     borderopacity="1"
     inkscape:showpageshadow="0"
     inkscape:pageopacity="0"
     inkscape:pagecheckerboard="0"
     inkscape:deskcolor="#505050"
     inkscape:document-units="mm"
     showgrid="false"
     inkscape:zoom="1"
     inkscape:cx="252"
     inkscape:cy="636.5"
     inkscape:window-width="2299"
     inkscape:window-height="1205"
     inkscape:window-x="222"
     inkscape:window-y="44"
     inkscape:window-maximized="0"
     inkscape:current-layer="g3044" /><defs
     id="defs2"><linearGradient
       id="linearGradient19429"
       inkscape:swatch="solid"><stop
         style="stop-color:#000000;stop-opacity:1;"
         offset="0"
         id="stop19427" /></linearGradient><inkscape:path-effect
       effect="bspline"
       id="path-effect17233"
       is_visible="true"
       lpeversion="1"
       weight="33.333333"
       steps="2"
       helper_size="0"
       apply_no_weight="true"
       apply_with_weight="true"
       only_selected="false" /><inkscape:path-effect
       effect="bspline"
       id="path-effect16503"
       is_visible="true"
       lpeversion="1"
       weight="33.333333"
       steps="2"
       helper_size="0"
       apply_no_weight="true"
       apply_with_weight="true"
       only_selected="false" /><inkscape:path-effect
       effect="bspline"
       id="path-effect11132"
       is_visible="true"
       lpeversion="1"
       weight="33.333333"
       steps="2"
       helper_size="0"
       apply_no_weight="true"
       apply_with_weight="true"
       only_selected="false" /><inkscape:path-effect
       effect="bspline"
       id="path-effect8548"
       is_visible="true"
       lpeversion="1"
       weight="33.333333"
       steps="2"
       helper_size="0"
       apply_no_weight="true"
       apply_with_weight="true"
       only_selected="false" /><inkscape:path-effect
       effect="bspline"
       id="path-effect8544"
       is_visible="true"
       lpeversion="1"
       weight="33.333333"
       steps="2"
       helper_size="0"
       apply_no_weight="true"
       apply_with_weight="true"
       only_selected="false" /><inkscape:path-effect
       effect="bspline"
       id="path-effect7814"
       is_visible="true"
       lpeversion="1"
       weight="33.333333"
       steps="2"
       helper_size="0"
       apply_no_weight="true"
       apply_with_weight="true"
       only_selected="false" /><linearGradient
       id="linearGradient2185"
       inkscape:swatch="solid"><stop
         style="stop-color:#000000;stop-opacity:1;"
         offset="0"
         id="stop2183" /></linearGradient><linearGradient
       id="linearGradient1335"
       inkscape:swatch="gradient"><stop
         style="stop-color:#000000;stop-opacity:1;"
         offset="0"
         id="stop1331" /><stop
         style="stop-color:#000000;stop-opacity:0;"
         offset="1"
         id="stop1333" /></linearGradient><inkscape:path-effect
       effect="bspline"
       id="path-effect17233-6"
       is_visible="true"
       lpeversion="1"
       weight="33.333333"
       steps="2"
       helper_size="0"
       apply_no_weight="true"
       apply_with_weight="true"
       only_selected="false" /></defs><g
     inkscape:label="Layer 1"
     inkscape:groupmode="layer"
     id="layer1"><g
       id="g3044"><path
         sodipodi:type="star"
         style="fill:#000000;fill-opacity:0;stroke:#000000;stroke-width:1.86264794;stroke-dasharray:none;stroke-dashoffset:1.11759;stroke-opacity:1"
         id="path385"
         inkscape:flatsided="true"
         sodipodi:sides="6"
         sodipodi:cx="40.776047"
         sodipodi:cy="62.465431"
         sodipodi:r1="27.978468"
         sodipodi:r2="24.230062"
         sodipodi:arg1="0.51914611"
         sodipodi:arg2="1.0427449"
         inkscape:rounded="0"
         inkscape:randomized="0"
         d="M 65.06816,76.346638 40.900625,90.443622 16.608512,76.562415 16.483934,48.584224 40.651468,34.487241 64.943581,48.368448 Z"
         transform="matrix(-1.1071429,0,0,1.0413453,118.48859,96.357055)" /><path
         sodipodi:type="star"
         style="fill:#000000;fill-opacity:0;stroke:#000000;stroke-width:1.86264794;stroke-dasharray:none;stroke-opacity:1;stroke-dashoffset:0"
         id="path385-3"
         inkscape:flatsided="true"
         sodipodi:sides="6"
         sodipodi:cx="40.776047"
         sodipodi:cy="62.465431"
         sodipodi:r1="27.978468"
         sodipodi:r2="24.230062"
         sodipodi:arg1="0.51914611"
         sodipodi:arg2="1.0427449"
         inkscape:rounded="0"
         inkscape:randomized="0"
         d="M 65.06816,76.346638 40.900625,90.443622 16.608512,76.562415 16.483934,48.584224 40.651468,34.487241 64.943581,48.368448 Z"
         transform="matrix(1.1071429,0,0,1.0413453,58.248039,46.613566)" /><path
         sodipodi:type="star"
         style="fill:none;fill-opacity:1;stroke:#000000;stroke-width:1.86264794;stroke-opacity:0.99574471;stroke-dasharray:none;stroke-dashoffset:0.74505913"
         id="path385-8"
         inkscape:flatsided="true"
         sodipodi:sides="6"
         sodipodi:cx="40.776047"
         sodipodi:cy="62.465431"
         sodipodi:r1="27.978468"
         sodipodi:r2="24.230062"
         sodipodi:arg1="0.51914611"
         sodipodi:arg2="1.0427449"
         inkscape:rounded="0"
         inkscape:randomized="0"
         d="M 65.06816,76.346638 40.900625,90.443622 16.608512,76.562415 16.483934,48.584224 40.651468,34.487241 64.943581,48.368448 Z"
         transform="matrix(1.1071429,0,0,1.0413453,88.711716,96.13006)" /></g><g
       id="g6286"
       transform="matrix(1.2179097,0,0,1.2163996,-3.7859482,-127.72837)"><ellipse
         style="fill:#ffffff;fill-opacity:0;stroke:#000000;stroke-width:1.2;stroke-dasharray:none;stroke-dashoffset:4.53543;stroke-opacity:1"
         id="path3824"
         cx="63.329514"
         cy="237.69615"
         rx="11.505953"
         ry="11.318865" /><path
         style="fill:#ffffff;fill-opacity:0;stroke:#000000;stroke-width:0.578819;stroke-dasharray:none;stroke-dashoffset:4.53543;stroke-opacity:1"
         d="m 63.346363,237.7119 -5.486108,-8.35815"
         id="path4720" /><path
         style="fill:#ffffff;fill-opacity:0;stroke:#000000;stroke-width:0.683;stroke-dasharray:none;stroke-dashoffset:4.53543;stroke-opacity:1"
         d="m 63.330963,237.70135 6.364011,-3.2023"
         id="path4722" /><ellipse
         style="fill:#ffffff;fill-opacity:0;stroke:#000000;stroke-width:0.751415;stroke-dasharray:none;stroke-dashoffset:4.53543;stroke-opacity:1"
         id="path4724"
         cx="63.329514"
         cy="237.69615"
         rx="0.37354112"
         ry="0.37001109" /><path
         style="fill:#ffffff;fill-opacity:0;stroke:#000000;stroke-width:0.65;stroke-dasharray:none;stroke-dashoffset:4.53543;stroke-opacity:1"
         d="m 52.072439,237.69615 h 2.349876"
         id="path4728" /><path
         style="fill:#ffffff;fill-opacity:0;stroke:#000000;stroke-width:0.65;stroke-dasharray:none;stroke-dashoffset:4.53543;stroke-opacity:1"
         d="m 72.48559,237.69615 h 2.349876"
         id="path4728-4" /><path
         style="fill:#ffffff;fill-opacity:0;stroke:#000000;stroke-width:0.65;stroke-dasharray:none;stroke-dashoffset:4.53543;stroke-opacity:1"
         d="m 63.329514,246.67751 v 2.34988"
         id="path4728-8" /><path
         style="fill:#ffffff;fill-opacity:0;stroke:#000000;stroke-width:0.65;stroke-dasharray:none;stroke-dashoffset:4.53543;stroke-opacity:1"
         d="m 63.329514,226.37641 v 2.34988"
         id="path4728-8-5" /></g><g
       id="g8658"
       transform="translate(0.09354433,-0.09354433)" /><g
       id="g11179"
       transform="matrix(1.183097,0,0,1.1337505,-17.819963,-141.76607)"><g
         id="g10523"
         transform="matrix(0.9645256,0,0,1,4.0403603,-0.09354433)"><g
           id="g10587"><path
             style="fill:#000000;fill-opacity:1;stroke:#000000;stroke-width:0.349999;stroke-dasharray:none;stroke-dashoffset:4.53543;stroke-opacity:1"
             d="m 98.995654,211.20365 c -1.85181,0 -3.7039,0 -4.712687,0.0331 -1.008787,0.033 -1.174148,0.0992 -1.356113,0.22048 -0.181964,0.12129 -0.380399,0.29767 -0.523743,0.46308 -0.143344,0.16541 -0.231547,0.31976 -0.292172,0.47416 -0.06063,0.15439 -0.09369,0.30874 -0.104687,4.0957 -0.01099,3.78695 3.9e-5,11.20615 0.01661,14.96547 0.01657,3.75932 0.0386,3.85854 0.08274,3.96878 0.04414,0.11024 0.110281,0.2315 0.198508,0.35827 0.08823,0.12676 0.198468,0.25905 0.319781,0.36926 0.121312,0.11021 0.253584,0.19839 0.407929,0.27552 0.154345,0.0771 0.330739,0.14327 3.119911,0.17077 2.789173,0.0275 8.190979,0.0165 10.969089,-9e-5 2.7781,-0.0165 2.93244,-0.0386 3.11974,-0.15432 0.18731,-0.11573 0.40779,-0.32519 0.57313,-0.52359 0.16534,-0.19839 0.27558,-0.3858 0.34174,-0.54008 0.0662,-0.15427 0.0882,-0.27554 0.0972,-0.53389 0.009,-0.25836 0.005,-0.65385 0.002,-0.85098 -0.003,-0.19714 -0.004,-0.19614 -0.0465,-0.19672 -0.0426,-5.8e-4 -0.12671,-0.003 -2.87044,-0.003 -2.74373,7.3e-4 -8.14691,0.005 -10.852088,0.003 -2.705178,-0.002 -2.71193,-0.0101 -2.716666,-3.30523 -0.0047,-3.29514 -0.0071,-9.87686 -0.0084,-13.17192 -0.0013,-3.29505 -0.0017,-3.30335 0.0042,-3.31073 0.0059,-0.007 0.01797,-0.0136 0.05666,-0.0163 0.03869,-0.003 0.103784,-0.002 0.50118,-0.002 0.397397,0 1.127057,-6.6e-4 1.493291,-6.1e-4 0.366235,4e-5 0.369294,8.1e-4 0.374161,0.005 0.0049,0.004 0.01239,0.0107 0.0169,0.0283 0.0045,0.0176 0.0062,0.0459 0.0089,0.0717 0.0027,0.0258 0.0065,0.0492 0.0176,0.0894 0.01106,0.0401 0.02933,0.097 0.05829,0.1697 0.02896,0.0727 0.06858,0.16122 0.113059,0.24339 0.04448,0.0822 0.09373,0.15795 0.147666,0.22994 0.05393,0.072 0.112508,0.14021 0.166087,0.19339 0.05358,0.0532 0.102152,0.0914 0.144194,0.12329 0.04204,0.0319 0.07754,0.0574 0.126655,0.0884 0.04912,0.031 0.111789,0.0675 0.178461,0.10211 0.06667,0.0346 0.137271,0.0673 0.216009,0.0961 0.07874,0.0288 0.165539,0.0535 0.250452,0.0692 0.08491,0.0156 0.167922,0.0222 1.198354,0.0271 1.030435,0.005 3.008225,0.008 4.025365,0.003 1.01715,-0.006 1.07362,-0.02 1.15801,-0.0438 0.0844,-0.0238 0.19672,-0.0568 0.2983,-0.0958 0.10158,-0.0389 0.19255,-0.0837 0.27967,-0.13951 0.0871,-0.0558 0.1705,-0.12263 0.24008,-0.18636 0.0696,-0.0637 0.12538,-0.12434 0.18323,-0.19597 0.0579,-0.0716 0.11782,-0.15432 0.17018,-0.24388 0.0524,-0.0896 0.0971,-0.18598 0.13227,-0.27623 0.0352,-0.0902 0.0607,-0.17431 0.0741,-0.23213 0.0134,-0.0578 0.0148,-0.0895 0.0184,-0.10567 0.004,-0.0162 0.01,-0.0165 0.35058,-0.0165 0.34091,0 1.01682,3.4e-4 1.35716,6.9e-4 0.34034,3.5e-4 0.34435,6.5e-4 0.3511,0.004 0.007,0.003 0.0152,0.008 0.0215,0.015 0.006,0.007 0.0105,0.0144 0.0106,0.39338 3e-5,0.37901 -0.004,1.12968 -0.003,1.53536 8.7e-4,0.40568 0.006,0.46629 0.016,0.52829 0.01,0.062 0.0234,0.12543 0.0548,0.20251 0.0314,0.0771 0.0802,0.16782 0.13141,0.24681 0.0512,0.079 0.10482,0.1462 0.17451,0.21291 0.0697,0.0667 0.15547,0.13299 0.22758,0.18118 0.0721,0.0482 0.13061,0.0784 0.19685,0.10762 0.0662,0.0292 0.14032,0.0575 0.2163,0.0779 0.076,0.0204 0.15396,0.0331 0.24163,0.0394 0.0877,0.006 0.18513,0.006 0.29277,-0.008 0.10764,-0.0146 0.22553,-0.0439 0.3244,-0.0799 0.0989,-0.0361 0.17876,-0.0789 0.26642,-0.1442 0.0876,-0.0653 0.18314,-0.15295 0.25669,-0.23429 0.0735,-0.0813 0.12518,-0.15636 0.17048,-0.23429 0.0453,-0.0779 0.0843,-0.15879 0.11107,-0.24107 0.0268,-0.0823 0.0414,-0.16611 0.0482,-0.22551 0.007,-0.0594 0.006,-0.0945 0.007,-0.66991 10e-4,-0.5754 0.004,-1.69109 0.004,-2.26649 -4.3e-4,-0.57539 -0.004,-0.61051 -0.0102,-0.65532 -0.006,-0.0448 -0.0136,-0.0993 -0.0215,-0.1542"
             id="path7812" /><path
             style="fill:#000000;fill-opacity:1;stroke:#000000;stroke-width:0.353124;stroke-dasharray:none;stroke-dashoffset:4.53543;stroke-opacity:1"
             d="m 98.792574,211.07351 c 0.02121,-0.18909 0.04244,-0.37841 0.06995,-0.53113 0.02751,-0.15273 0.06132,-0.26874 0.0961,-0.3758 0.03478,-0.10705 0.07053,-0.20511 0.134298,-0.31621 0.06377,-0.1111 0.155567,-0.23519 0.270053,-0.37426 0.114487,-0.13907 0.251669,-0.29314 0.337665,-0.38269 0.086,-0.0896 0.120772,-0.11455 0.222238,-0.18459 0.101462,-0.07 0.269562,-0.1851 0.396202,-0.25563 0.12663,-0.0705 0.21159,-0.0965 0.36762,-0.14504 0.15602,-0.0485 0.38309,-0.11955 0.61114,-0.14151 0.22806,-0.022 0.45701,0.005 0.66137,0.0451 0.20435,0.0401 0.38404,0.0931 0.53282,0.14311 0.14879,0.05 0.26665,0.0971 0.39369,0.17264 0.12703,0.0756 0.26324,0.17963 0.38014,0.2792 0.11689,0.0996 0.21443,0.19457 0.305,0.2924 0.0906,0.0978 0.17412,0.19835 0.26467,0.33719 0.0905,0.13884 0.1881,0.31588 0.25933,0.46544 0.0712,0.14957 0.11614,0.27161 0.14218,0.40493 0.026,0.13332 0.0333,0.27786 0.0393,0.38349 0.006,0.10563 0.0109,0.17204 0.0136,0.20915 0.003,0.0371 0.003,0.0464 0.62028,0.0545 0.61682,0.008 1.84954,0.0161 2.74996,0.0161 0.90042,0 1.46847,-0.008 1.85301,0.0221 0.38454,0.0301 0.5855,0.0981 0.77024,0.20872 0.18475,0.11062 0.35333,0.26368 0.48036,0.39528 0.12704,0.13159 0.21251,0.2416 0.28975,0.38669 0.0772,0.14508 0.14632,0.32517 0.15264,0.41953 0.006,0.0944 -0.0503,0.10337 -0.10707,0.1124"
             id="path8542" /><path
             style="fill:#000000;fill-opacity:1;stroke:#000000;stroke-width:0.157136;stroke-dasharray:none;stroke-dashoffset:4.53543;stroke-opacity:1"
             d="m 98.916175,211.01616 c 5.2e-5,-0.0112 1.55e-4,-0.0337 0.0017,-0.0704 0.0015,-0.0367 0.0045,-0.0876 0.0038,-0.11692 -7.47e-4,-0.0293 -0.0057,-0.0372 -0.01792,-0.0306 -0.01227,0.007 -0.03222,0.027 -0.04138,0.0658 -0.0092,0.0388 -0.0075,0.0959 -0.0036,0.13124 0.0039,0.0353 0.01053,0.0502 0.01819,0.0577 0.0077,0.008 0.01606,0.009 0.02234,0.009 0.0063,1.2e-4 0.0093,-4.5e-4 0.0117,-0.007 0.0024,-0.006 0.0037,-0.0168 0.0043,-0.0226 6.74e-4,-0.006 7.64e-4,-0.005 8.15e-4,-0.0161 z"
             id="path8546" /><path
             style="fill:#000000;fill-opacity:1;stroke:#000000;stroke-width:0.0832096;stroke-dasharray:none;stroke-dashoffset:4.53543;stroke-opacity:1"
             d="m 111.10534,212.57643 0.001,-0.006 -0.0117,-0.0177 -0.025,0.003 0.002,0.0358 z"
             id="path8550" /><path
             id="rect8648"
             style="stroke:#000000;stroke-width:0.349999;stroke-dashoffset:4.53543"
             d="m 98.916176,211.01614 h 4.644924 v 1.032 h -4.644924 z" /><path
             id="rect8650"
             style="stroke:#000000;stroke-width:0.349999;stroke-dashoffset:4.53543"
             d="m 103.33308,211.84352 h 1.97612 v 1.11084 h -1.97612 z" /><path
             id="rect9441"
             style="fill:none;stroke:#000000;stroke-dashoffset:4.53543"
             d="m 96.869537,217.75623 h 2.778125 v 2.91041 h -2.778125 z" /><path
             id="rect9441-4"
             style="fill:none;stroke:#000000;stroke-dashoffset:4.53543"
             d="m 96.869537,222.67703 h 2.778125 v 2.91042 h -2.778125 z" /><path
             id="rect9441-3"
             style="fill:none;stroke:#000000;stroke-dashoffset:4.53543"
             d="m 96.869537,227.59784 h 2.778125 v 2.91042 h -2.778125 z" /></g><ellipse
           style="fill:#ffffff;fill-opacity:0;stroke:#ffffff;stroke-width:0.499999;stroke-dasharray:none;stroke-dashoffset:4.53543;stroke-opacity:0"
           id="path10641"
           cx="101.80836"
           cy="210.64397"
           rx="0.17834921"
           ry="0.49661994" /><ellipse
           style="fill:#ffffff;fill-opacity:0;stroke:#ffffff;stroke-width:0.499999;stroke-dasharray:none;stroke-dashoffset:4.53543;stroke-opacity:0"
           id="path10643"
           cx="101.44151"
           cy="210.79597"
           rx="0.36685196"
           ry="0.3446101" /><ellipse
           style="fill:#ffffff;fill-opacity:0;stroke:#ffffff;stroke-width:0.499999;stroke-dasharray:none;stroke-dashoffset:4.53543;stroke-opacity:0"
           id="path10645"
           cx="65.324684"
           cy="213.51303"
           rx="1.3890625"
           ry="1.2898896" /></g><g
         id="g11146"
         transform="translate(0.25282879,0.29152431)"><path
           id="path9525"
           style="fill:#000000;fill-opacity:1;stroke:#000000;stroke-width:0.5;stroke-dasharray:none;stroke-dashoffset:4.53543;stroke-opacity:1"
           d="m 110.00303,218.88793 a 6.5013313,6.4311728 0 0 0 -6.50141,6.43165 6.5013313,6.4311728 0 0 0 6.50141,6.43114 6.5013313,6.4311728 0 0 0 6.50141,-6.43114 6.5013313,6.4311728 0 0 0 -6.50141,-6.43165 z m 2.40761,2.34146 c 0.0602,-4.7e-4 0.1235,0.005 0.19171,0.0191 0.13643,0.0273 0.29257,0.0858 0.42117,0.16382 0.1286,0.078 0.2299,0.17593 0.30386,0.29817 0.074,0.12223 0.12102,0.26908 0.13849,0.4191 0.0175,0.15003 0.006,0.30285 -0.0997,0.57619 -0.10526,0.27334 -0.30424,0.66729 -0.83044,1.71772 -0.52619,1.05045 -1.37937,2.75733 -1.84123,3.65766 -0.46187,0.90033 -0.53244,0.99411 -0.62787,1.07591 -0.0954,0.0818 -0.21601,0.15193 -0.34261,0.19482 -0.1266,0.0429 -0.25931,0.0587 -0.37621,0.0568 -0.11689,-0.002 -0.21808,-0.0218 -0.32918,-0.0744 -0.11109,-0.0525 -0.23176,-0.13823 -0.63717,-0.62736 -0.4054,-0.48913 -1.09567,-1.38175 -1.44849,-1.85725 -0.35281,-0.4755 -0.36821,-0.53402 -0.38189,-0.63148 -0.0137,-0.0975 -0.0256,-0.23372 -0.006,-0.38189 0.0194,-0.14817 0.0702,-0.30815 0.154,-0.44855 0.0838,-0.14039 0.20099,-0.26102 0.3297,-0.339 0.12871,-0.078 0.26915,-0.113 0.41341,-0.12661 0.14426,-0.0136 0.2923,-0.006 0.41703,0.0233 0.12474,0.0293 0.2258,0.0805 0.32711,0.16433 0.1013,0.0839 0.203,0.20062 0.31212,0.33899 0.10912,0.13838 0.22612,0.29811 0.31575,0.42478 0.0896,0.12667 0.15178,0.22045 0.21394,0.31368 l 0.18706,0.25683 c 0.80287,-1.60963 1.60571,-3.21932 2.01694,-4.03593 0.41123,-0.81661 0.43078,-0.8397 0.47955,-0.88263 0.0488,-0.0429 0.12695,-0.1055 0.21859,-0.15813 0.0917,-0.0526 0.19686,-0.0955 0.308,-0.11886 0.0556,-0.0117 0.11241,-0.0186 0.1726,-0.0191 z" /><ellipse
           style="fill:#ffffff;fill-opacity:0;stroke:#ffffff;stroke-width:0.349999;stroke-dasharray:none;stroke-dashoffset:4.53543;stroke-opacity:0"
           id="path8660"
           cx="101.72356"
           cy="211.04704"
           rx="1.3446997"
           ry="1.3096206"
           inkscape:label="path8660" /></g></g><g
       id="g17267"
       transform="matrix(2.7347736,0,0,2.8197261,-179.34379,-518.94741)"><ellipse
         style="fill:#000000;fill-opacity:1;stroke:#000000;stroke-width:0.0482095;stroke-dasharray:none;stroke-dashoffset:4.53543;stroke-opacity:0.637255"
         id="path13531-5-8"
         cx="110.69886"
         cy="238.84019"
         rx="1.1823226"
         ry="1.1440225" /><ellipse
         style="fill:#000000;fill-opacity:1;stroke:#000000;stroke-width:0.0482095;stroke-dasharray:none;stroke-dashoffset:4.53543;stroke-opacity:0.637255"
         id="path13531-5"
         cx="118.4217"
         cy="238.84019"
         rx="1.1823226"
         ry="1.1440225" /><ellipse
         style="fill:#000000;fill-opacity:1;stroke:#000000;stroke-width:0.0567781;stroke-dasharray:none;stroke-dashoffset:4.53543;stroke-opacity:0.637255"
         id="path13531"
         cx="114.56028"
         cy="239.61394"
         rx="1.3723418"
         ry="1.3671144" /><path
         style="fill:#000000;fill-opacity:1;stroke:#000000;stroke-width:0.162;stroke-dasharray:none;stroke-dashoffset:4.53543;stroke-opacity:0.637255"
         d="m 113.35444,240.72237 c 0.0138,0.0152 0.041,0.0454 0.0976,0.0914 0.0565,0.046 0.14232,0.1079 0.25974,0.17096 0.11743,0.0631 0.26652,0.12736 0.40292,0.16823 0.13641,0.0409 0.26016,0.0584 0.37633,0.064 0.11618,0.006 0.22483,-7.6e-4 0.34319,-0.0225 0.11836,-0.0217 0.24648,-0.0587 0.36215,-0.10573 0.11566,-0.047 0.21896,-0.10403 0.30955,-0.16613 0.0906,-0.0621 0.16854,-0.12933 0.20913,-0.16222 0.0406,-0.0329 0.0435,-0.0316 0.0826,-0.0131 0.0391,0.0185 0.11415,0.0541 0.1865,0.0931 0.0723,0.039 0.142,0.0814 0.21019,0.12962 0.0682,0.0482 0.13497,0.10235 0.20145,0.16473 0.0665,0.0624 0.13275,0.13303 0.19558,0.21174 0.0628,0.0787 0.12227,0.16542 0.16902,0.24291 0.0468,0.0775 0.0808,0.14567 0.11421,0.22339 0.0333,0.0777 0.066,0.16493 0.0891,0.24333 0.0231,0.0784 0.0367,0.1481 0.0472,0.53763 0.0104,0.38952 0.0177,1.09887 0.0189,1.45589 0.001,0.35702 -0.003,0.36145 -0.0183,0.36875 -0.0149,0.007 -0.04,0.0173 -0.13194,0.0404 -0.092,0.0231 -0.25078,0.0593 -0.49054,0.0913 -0.23976,0.032 -0.56049,0.06 -0.89103,0.077 -0.33055,0.0171 -0.66277,0.0232 -0.99121,0.0248 -0.32844,0.002 -0.64902,-0.001 -0.89969,-0.01 -0.25066,-0.008 -0.43141,-0.0219 -0.61143,-0.0399 -0.18002,-0.018 -0.35932,-0.0404 -0.51423,-0.0725 -0.15492,-0.0321 -0.28549,-0.074 -0.35137,-0.0965 -0.0659,-0.0225 -0.0671,-0.0265 -0.0664,-0.37658 6.9e-4,-0.35008 0.003,-1.04726 0.008,-1.42265 0.005,-0.3754 0.0114,-0.42903 0.0314,-0.50751 0.02,-0.0785 0.0531,-0.18175 0.0892,-0.27385 0.0361,-0.0921 0.075,-0.173 0.12377,-0.25489 0.0487,-0.0819 0.10719,-0.1647 0.15983,-0.23244 0.0526,-0.0677 0.0994,-0.12035 0.16373,-0.18176 0.0643,-0.0614 0.14618,-0.13156 0.2359,-0.19639 0.0897,-0.0648 0.18716,-0.12424 0.25873,-0.16699 0.0716,-0.0428 0.11718,-0.0688 0.14491,-0.0839 0.0277,-0.0151 0.0372,-0.0192 0.0445,-0.0222 0.007,-0.003 0.0126,-0.005 0.0151,-0.006 0.002,-9.7e-4 0.003,-7.9e-4 0.0164,0.0145 z"
         id="path16501"
         inkscape:path-effect="#path-effect16503"
         inkscape:original-d="m 113.34065,240.70711 c 0.0276,0.0305 0.0548,0.0607 0.0819,0.0906 0.086,0.0621 0.17176,0.12402 0.25724,0.18563 0.14935,0.0646 0.29844,0.12889 0.44726,0.19293 0.12402,0.0178 0.24777,0.0353 0.37126,0.0526 0.10891,-0.006 0.21756,-0.0124 0.32594,-0.019 0.1284,-0.0368 0.25653,-0.0738 0.38441,-0.11108 0.10355,-0.0567 0.20684,-0.11374 0.30986,-0.17101 0.0782,-0.067 0.15617,-0.1342 0.23386,-0.2017 0.003,0.002 0.006,0.003 0.009,0.004 0.0753,0.0358 0.15033,0.0714 0.22509,0.1067 0.0699,0.0427 0.13961,0.085 0.20902,0.12716 0.067,0.0543 0.13376,0.10842 0.20024,0.16224 0.0665,0.0709 0.13278,0.14155 0.19878,0.21194 0.0597,0.087 0.11914,0.17371 0.17832,0.26017 0.0344,0.0685 0.0685,0.13668 0.10232,0.20463 0.0329,0.0875 0.0656,0.17468 0.0979,0.26163 0.0139,0.0699 0.0275,0.1396 0.0409,0.20901 0.008,0.70966 0.0149,1.41902 0.0219,2.12813 -0.005,0.005 -0.009,0.01 -0.0144,0.014 -0.0249,0.0103 -0.05,0.0202 -0.0754,0.03 -0.15856,0.0365 -0.31738,0.0726 -0.47646,0.10853 -0.32048,0.0282 -0.64121,0.0561 -0.96221,0.0837 -0.34012,0.006 -0.67233,0.0127 -1.0089,0.0186 -0.32032,-0.003 -0.6409,-0.006 -0.96175,-0.009 -0.1805,-0.0134 -0.36125,-0.027 -0.54227,-0.0409 -0.17903,-0.0221 -0.35832,-0.0446 -0.53788,-0.0672 -0.13031,-0.0416 -0.26088,-0.0835 -0.39171,-0.1257 -8e-4,-0.003 -0.002,-0.007 -0.003,-0.0102 0.003,-0.69695 0.005,-1.39413 0.007,-2.09159 0.007,-0.0533 0.0139,-0.10693 0.0205,-0.16078 0.0334,-0.10303 0.0665,-0.20632 0.0994,-0.30987 0.0392,-0.0806 0.0782,-0.16149 0.11693,-0.24263 0.0587,-0.0826 0.1172,-0.16538 0.1754,-0.24848 0.047,-0.0524 0.0938,-0.10497 0.14032,-0.15785 0.0821,-0.0699 0.16396,-0.14005 0.24555,-0.21048 0.0978,-0.0592 0.19524,-0.11861 0.29246,-0.17831 0.0459,-0.0258 0.0915,-0.0519 0.1369,-0.0782 0.01,-0.004 0.0195,-0.008 0.0289,-0.0124 0.005,-0.002 0.0104,-0.004 0.0153,-0.006 z" /><path
         style="fill:#000000;fill-opacity:1;stroke:#000000;stroke-width:0.162;stroke-dasharray:none;stroke-dashoffset:4.53543;stroke-opacity:0.637255"
         d="m 117.33652,243.05291 c 0.002,-0.13224 0.006,-0.397 0.002,-0.5849 -0.004,-0.18789 -0.0177,-0.29896 -0.0346,-0.38154 -0.017,-0.0826 -0.0379,-0.13665 -0.0682,-0.22265 -0.0302,-0.086 -0.0697,-0.20391 -0.1142,-0.30254 -0.0445,-0.0986 -0.0943,-0.17809 -0.16658,-0.27943 -0.0723,-0.10135 -0.16734,-0.22463 -0.25085,-0.31042 -0.0835,-0.0858 -0.15563,-0.13403 -0.21431,-0.17348 -0.0587,-0.0394 -0.10406,-0.0702 -0.12721,-0.0886 -0.0231,-0.0184 -0.0238,-0.0238 -0.0198,-0.0332 0.004,-0.009 0.0128,-0.0221 0.0581,-0.0791 0.0453,-0.057 0.12716,-0.15835 0.19537,-0.23899 0.0682,-0.0806 0.12278,-0.14057 0.17641,-0.19054 0.0536,-0.05 0.10621,-0.0899 0.16642,-0.13206 0.0602,-0.0422 0.1279,-0.0865 0.19007,-0.11913 0.0622,-0.0326 0.11867,-0.0536 0.15215,-0.0633 0.0335,-0.01 0.0436,-0.008 0.0668,0.007 0.0231,0.0156 0.0592,0.0454 0.0972,0.0753 0.038,0.03 0.078,0.0602 0.13472,0.095 0.0567,0.0348 0.13034,0.0743 0.21295,0.10762 0.0826,0.0334 0.17413,0.0606 0.26596,0.0784 0.0918,0.0178 0.18392,0.0261 0.27965,0.028 0.0957,0.002 0.19508,-0.002 0.27201,-0.0122 0.0769,-0.01 0.13153,-0.0249 0.18607,-0.0419 0.0545,-0.0171 0.10914,-0.0361 0.17757,-0.0668 0.0684,-0.0307 0.15077,-0.0731 0.21603,-0.11114 0.0653,-0.038 0.11349,-0.0716 0.14951,-0.10099 0.036,-0.0294 0.0599,-0.0548 0.0752,-0.0696 0.0153,-0.0148 0.0225,-0.0195 0.0406,-0.0145 0.0181,0.005 0.0476,0.019 0.0909,0.043 0.0433,0.024 0.10047,0.0581 0.15766,0.0943 0.0572,0.0362 0.11433,0.0744 0.19048,0.13972 0.0761,0.0653 0.1712,0.15763 0.23834,0.23293 0.0671,0.0753 0.10642,0.13352 0.14672,0.1983 0.0403,0.0648 0.0816,0.1361 0.11933,0.22911 0.0377,0.093 0.0718,0.20774 0.0952,0.3109 0.0234,0.10317 0.0362,0.19475 0.0435,0.51144 0.007,0.31668 0.009,0.85844 0.007,1.13117 -0.002,0.27272 -0.008,0.27661 -0.0369,0.28672 -0.0289,0.0101 -0.0805,0.0263 -0.25708,0.0523 -0.17655,0.026 -0.47798,0.0619 -0.72998,0.0843 -0.252,0.0224 -0.45457,0.0314 -0.7071,0.0386 -0.25253,0.007 -0.555,0.0127 -0.79943,0.0148 -0.24443,0.002 -0.4308,7.6e-4 -0.53137,9e-5 -0.10058,-6.7e-4 -0.11548,-6.7e-4 -0.126,-0.002 -0.0105,-0.001 -0.0166,-0.004 -0.0199,-0.006 -0.003,-0.002 -0.003,-0.002 -6.5e-4,-0.13427 z"
         id="path17231"
         inkscape:path-effect="#path-effect17233"
         inkscape:original-d="m 117.33444,243.18515 c 0.004,-0.26448 0.009,-0.52923 0.0125,-0.79424 -0.0129,-0.11082 -0.026,-0.2219 -0.0395,-0.33325 -0.0207,-0.0538 -0.0416,-0.1079 -0.0628,-0.16224 -0.0392,-0.11765 -0.0787,-0.23555 -0.1184,-0.35372 -0.0494,-0.0791 -0.0991,-0.15857 -0.14909,-0.23824 -0.0947,-0.12301 -0.18974,-0.24627 -0.28501,-0.3698 -0.0718,-0.048 -0.14395,-0.0962 -0.21632,-0.1447 -0.045,-0.0304 -0.0904,-0.0611 -0.13594,-0.0921 -2.2e-4,-0.006 -7.9e-4,-0.0114 -0.002,-0.0175 0.009,-0.0124 0.0178,-0.0251 0.0263,-0.038 0.0821,-0.10108 0.16396,-0.20242 0.24555,-0.30402 0.0548,-0.0597 0.1094,-0.11959 0.1637,-0.17978 0.0529,-0.0397 0.10551,-0.0796 0.15786,-0.11986 0.068,-0.0441 0.13571,-0.0884 0.20317,-0.13301 0.0568,-0.0207 0.1133,-0.0416 0.16955,-0.0628 0.0105,0.002 0.0207,0.003 0.0307,0.004 0.0363,0.03 0.0724,0.0597 0.10816,0.0892 0.0402,0.0305 0.0802,0.0607 0.11986,0.0906 0.0738,0.0397 0.1474,0.0792 0.2207,0.11839 0.0919,0.0276 0.18346,0.0548 0.27479,0.0819 0.0923,0.009 0.18443,0.0168 0.27624,0.0249 0.0997,-0.004 0.19905,-0.008 0.29818,-0.0131 0.0548,-0.0148 0.1094,-0.0299 0.1637,-0.0453 0.0548,-0.0187 0.1094,-0.0377 0.1637,-0.057 0.0826,-0.0422 0.16494,-0.0846 0.24702,-0.12729 0.0485,-0.0333 0.0967,-0.0669 0.1447,-0.10072 0.0241,-0.0251 0.048,-0.0504 0.0716,-0.076 0.007,-0.004 0.0139,-0.009 0.0204,-0.0131 0.0297,0.0142 0.0592,0.0282 0.0883,0.0419 0.0575,0.0344 0.11465,0.0685 0.17157,0.10232 0.0575,0.0385 0.11464,0.0767 0.17157,0.11472 0.0954,0.0926 0.19043,0.18492 0.28525,0.27698 0.0395,0.0585 0.0788,0.11671 0.11782,0.17467 0.0416,0.0716 0.083,0.14289 0.12403,0.21394 0.0344,0.11499 0.0685,0.22971 0.10231,0.34417 0.013,0.0919 0.0258,0.18348 0.0383,0.27483 0.002,0.54205 0.004,1.08381 0.006,1.62533 -0.006,0.004 -0.0119,0.008 -0.0183,0.0119 -0.0514,0.0165 -0.10308,0.0326 -0.15503,0.0486 -0.30118,0.0361 -0.60262,0.0719 -0.90433,0.10749 -0.20232,0.009 -0.40488,0.0182 -0.60772,0.0269 -0.30222,0.006 -0.60469,0.0113 -0.90744,0.0165 -0.18612,-0.001 -0.37249,-0.002 -0.55914,-0.004 -0.0145,2.6e-4 -0.0294,2.6e-4 -0.0444,0 -0.006,-0.003 -0.0121,-0.006 -0.0186,-0.009 z" /><path
         style="fill:#000000;fill-opacity:1;stroke:#000000;stroke-width:0.162;stroke-dasharray:none;stroke-dashoffset:4.53543;stroke-opacity:0.637255"
         d="m 111.71362,243.05293 c -0.002,-0.13224 -0.006,-0.397 -0.002,-0.5849 0.004,-0.18789 0.0177,-0.29896 0.0346,-0.38154 0.017,-0.0826 0.0379,-0.13665 0.0682,-0.22265 0.0302,-0.086 0.0697,-0.20391 0.1142,-0.30254 0.0445,-0.0986 0.0943,-0.17809 0.16658,-0.27943 0.0723,-0.10135 0.16734,-0.22463 0.25085,-0.31042 0.0835,-0.0858 0.15563,-0.13403 0.21431,-0.17348 0.0587,-0.0394 0.10406,-0.0702 0.12721,-0.0886 0.0231,-0.0184 0.0238,-0.0238 0.0198,-0.0332 -0.004,-0.009 -0.0128,-0.0221 -0.0581,-0.0791 -0.0453,-0.057 -0.12716,-0.15835 -0.19537,-0.23899 -0.0682,-0.0806 -0.12278,-0.14057 -0.17641,-0.19054 -0.0536,-0.05 -0.10621,-0.0899 -0.16642,-0.13206 -0.0602,-0.0422 -0.1279,-0.0865 -0.19007,-0.11913 -0.0622,-0.0326 -0.11867,-0.0536 -0.15215,-0.0633 -0.0335,-0.01 -0.0436,-0.008 -0.0668,0.007 -0.0232,0.0156 -0.0592,0.0454 -0.0972,0.0753 -0.038,0.03 -0.078,0.0602 -0.13472,0.095 -0.0567,0.0348 -0.13034,0.0743 -0.21295,0.10762 -0.0826,0.0334 -0.17413,0.0606 -0.26596,0.0784 -0.0918,0.0178 -0.18392,0.0261 -0.27965,0.028 -0.0957,0.002 -0.19508,-0.002 -0.27201,-0.0122 -0.0769,-0.01 -0.13153,-0.0249 -0.18607,-0.0419 -0.0545,-0.017 -0.10914,-0.0361 -0.17757,-0.0668 -0.0684,-0.0307 -0.15077,-0.0731 -0.21603,-0.11114 -0.0653,-0.038 -0.11349,-0.0716 -0.14951,-0.10099 -0.036,-0.0294 -0.0599,-0.0548 -0.0752,-0.0696 -0.0153,-0.0148 -0.0225,-0.0195 -0.0406,-0.0145 -0.0181,0.005 -0.0476,0.019 -0.0909,0.043 -0.0433,0.024 -0.10047,0.0581 -0.15766,0.0943 -0.0572,0.0362 -0.11433,0.0744 -0.19048,0.13972 -0.0761,0.0653 -0.1712,0.15763 -0.23834,0.23293 -0.0671,0.0753 -0.10642,0.13352 -0.14672,0.1983 -0.0403,0.0648 -0.0816,0.1361 -0.11933,0.22911 -0.0377,0.093 -0.0718,0.20774 -0.0952,0.3109 -0.0234,0.10317 -0.0362,0.19475 -0.0435,0.51144 -0.007,0.31668 -0.009,0.85844 -0.007,1.13117 0.002,0.27272 0.008,0.27661 0.0369,0.28672 0.0289,0.0101 0.0805,0.0263 0.25708,0.0523 0.17655,0.026 0.47798,0.0619 0.72998,0.0843 0.252,0.0224 0.45457,0.0314 0.7071,0.0386 0.25253,0.007 0.555,0.0127 0.79943,0.0148 0.24443,0.002 0.4308,7.6e-4 0.53137,9e-5 0.10058,-6.7e-4 0.11548,-6.7e-4 0.126,-0.002 0.0105,-0.001 0.0166,-0.004 0.0199,-0.006 0.003,-0.002 0.003,-0.002 6.5e-4,-0.13427 z"
         id="path17231-1"
         inkscape:path-effect="#path-effect17233-6"
         inkscape:original-d="m 111.7157,243.18517 c -0.004,-0.26448 -0.009,-0.52923 -0.0125,-0.79424 0.0129,-0.11082 0.026,-0.2219 0.0395,-0.33325 0.0207,-0.0538 0.0416,-0.1079 0.0628,-0.16224 0.0392,-0.11765 0.0787,-0.23555 0.1184,-0.35372 0.0494,-0.0791 0.0991,-0.15857 0.14909,-0.23824 0.0947,-0.12301 0.18974,-0.24627 0.28501,-0.3698 0.0718,-0.048 0.14395,-0.0962 0.21632,-0.1447 0.045,-0.0304 0.0904,-0.0611 0.13594,-0.0921 2.2e-4,-0.006 7.9e-4,-0.0114 0.002,-0.0175 -0.009,-0.0124 -0.0178,-0.0251 -0.0263,-0.038 -0.0821,-0.10108 -0.16396,-0.20242 -0.24555,-0.30402 -0.0548,-0.0597 -0.1094,-0.11959 -0.1637,-0.17978 -0.0529,-0.0397 -0.10551,-0.0796 -0.15786,-0.11986 -0.068,-0.0441 -0.13571,-0.0884 -0.20317,-0.13301 -0.0568,-0.0207 -0.1133,-0.0416 -0.16955,-0.0628 -0.0105,0.002 -0.0207,0.003 -0.0307,0.004 -0.0363,0.03 -0.0724,0.0597 -0.10816,0.0892 -0.0402,0.0305 -0.0802,0.0607 -0.11986,0.0906 -0.0738,0.0397 -0.1474,0.0792 -0.2207,0.11839 -0.0919,0.0276 -0.18346,0.0548 -0.27479,0.0819 -0.0923,0.009 -0.18443,0.0168 -0.27624,0.0249 -0.0997,-0.004 -0.19905,-0.008 -0.29818,-0.0131 -0.0548,-0.0148 -0.1094,-0.0299 -0.1637,-0.0453 -0.0548,-0.0187 -0.1094,-0.0377 -0.1637,-0.057 -0.0826,-0.0422 -0.16494,-0.0846 -0.24702,-0.12729 -0.0485,-0.0333 -0.0967,-0.0669 -0.1447,-0.10072 -0.0241,-0.0251 -0.048,-0.0504 -0.0716,-0.076 -0.007,-0.004 -0.0139,-0.009 -0.0204,-0.0131 -0.0297,0.0142 -0.0592,0.0282 -0.0883,0.0419 -0.0575,0.0344 -0.11465,0.0685 -0.17157,0.10232 -0.0575,0.0385 -0.11464,0.0767 -0.17157,0.11472 -0.0954,0.0926 -0.19043,0.18492 -0.28525,0.27698 -0.0395,0.0585 -0.0788,0.11671 -0.11782,0.17467 -0.0416,0.0716 -0.083,0.14289 -0.12403,0.21394 -0.0344,0.11499 -0.0685,0.22971 -0.10231,0.34417 -0.013,0.0919 -0.0258,0.18348 -0.0383,0.27483 -0.002,0.54205 -0.004,1.08381 -0.006,1.62533 0.006,0.004 0.0119,0.008 0.0183,0.0119 0.0514,0.0165 0.10308,0.0326 0.15503,0.0486 0.30118,0.0361 0.60262,0.0719 0.90433,0.10749 0.20232,0.009 0.40488,0.0182 0.60772,0.0269 0.30222,0.006 0.60469,0.0113 0.90744,0.0165 0.18612,-0.001 0.37249,-0.002 0.55914,-0.004 0.0145,2.6e-4 0.0294,2.6e-4 0.0444,0 0.006,-0.003 0.0121,-0.006 0.0186,-0.009 z" /></g></g></svg>
