<?xml version="1.0" encoding="UTF-8" standalone="no"?>
<!-- Created with Inkscape (http://www.inkscape.org/) -->

<svg
   width="90.588799mm"
   height="94.269707mm"
   viewBox="0 0 90.588799 94.269707"
   version="1.1"
   id="svg5"
   xml:space="preserve"
   xmlns:inkscape="http://www.inkscape.org/namespaces/inkscape"
   xmlns:sodipodi="http://sodipodi.sourceforge.net/DTD/sodipodi-0.dtd"
   xmlns="http://www.w3.org/2000/svg"
   xmlns:svg="http://www.w3.org/2000/svg"><sodipodi:namedview
     id="namedview7"
     pagecolor="#505050"
     bordercolor="#eeeeee"
     borderopacity="1"
     inkscape:showpageshadow="0"
     inkscape:pageopacity="0"
     inkscape:pagecheckerboard="0"
     inkscape:deskcolor="#505050"
     inkscape:document-units="mm"
     showgrid="false"
     inkscape:zoom="0.64693624"
     inkscape:cx="361.71221"
     inkscape:cy="480.15871"
     inkscape:window-width="1986"
     inkscape:window-height="1171"
     inkscape:window-x="710"
     inkscape:window-y="73"
     inkscape:window-maximized="0"
     inkscape:current-layer="layer1" /><defs
     id="defs2" /><g
     inkscape:label="Layer 1"
     inkscape:groupmode="layer"
     id="layer1"
     transform="translate(-59.705606,-101.36515)"><g
       id="g9791"
       transform="translate(-5.526587,-12.53539)"
       style="fill:#26292e;fill-opacity:1"><path
         id="rect9713"
         style="fill:#26292e;fill-opacity:1;stroke:none;stroke-width:2;stroke-dashoffset:4.53543;stroke-opacity:0.995745"
         d="m 70.753304,113.90054 c -3.058736,0 -5.52111,2.46236 -5.52111,5.52111 v 61.09136 l 18.097087,-14.46733 12.525333,8.94622 20.908806,-22.28959 21.82915,17.94412 12.0649,-9.61078 5.16351,4.29431 v -45.90831 c 0,-3.05875 -2.46236,-5.52111 -5.52111,-5.52111 z m 30.213146,7.85017 h 19.04431 v 26.88001 l -3.76824,-3.16208 -15.27607,16.38505 z m -5.099433,12.06231 v 33.59278 l -0.650607,0.65061 -11.947074,-8.62118 -6.525183,5.22345 v -30.83532 z m 29.318103,11.08563 h 18.93011 v 14.52883 l -5.42912,4.42608 -13.50099,-10.99312 z m -7.96127,14.90968 -20.653517,22.23844 -12.985254,-9.3555 -18.352885,14.51901 v 15.43885 c 0,3.05875 2.462374,5.52111 5.52111,5.52111 h 79.546566 c 3.05875,0 5.52111,-2.46236 5.52111,-5.52111 v -30.21314 l -5.21467,-4.65243 -11.96258,9.7131 z m 0.50333,7.44451 9.36222,7.60005 -9.75444,-1.23971 -0.57206,6.17843 -4.80074,-1.43299 -7.28535,3.97754 z m -33.963301,11.44013 7.35459,4.12016 -7.624341,-0.47697 -0.450101,3.22151 -3.864364,-0.77773 -5.613094,2.06964 z" /></g></g></svg>
